# Blender v2.92.0 OBJ File: ''
# www.blender.org
mtllib 4_circles_square_middle.mtl
o Plane_Plane.001
v -19.646065 0.000000 60.000000
v 100.353935 0.000000 60.000000
v -19.646065 0.000000 -60.000000
v 100.353935 0.000000 -60.000000
v -19.646065 0.000000 0.000000
v 100.353935 0.000000 0.000000
v 40.353935 0.000000 60.000000
v 40.353935 0.000000 -60.000000
v 40.353935 0.000000 0.000000
v 100.353935 0.000000 -30.000000
v -19.646065 0.000000 -30.000000
v 40.353935 0.000000 -30.000000
v -19.646065 0.000000 30.000000
v 100.353935 0.000000 30.000000
v 40.353935 0.000000 30.000000
v 70.353935 0.000000 60.000000
v 70.353935 0.000000 -60.000000
v 70.353935 0.000000 0.000000
v 70.353935 0.000000 -30.000000
v 70.353935 0.000000 30.000000
v 10.353935 0.000000 -60.000000
v 10.353935 0.000000 0.000000
v 10.353935 0.000000 60.000000
v 10.353935 0.000000 -30.000000
v 10.353935 0.000000 30.000000
v -19.646065 0.000000 -15.000000
v 100.353935 0.000000 -15.000000
v 40.353935 0.000000 -15.000000
v 70.353935 0.000000 -15.000000
v 10.353935 0.000000 -15.000000
v 100.353935 0.000000 -45.000000
v 40.353935 0.000000 -45.000000
v -19.646065 0.000000 -45.000000
v 70.353935 0.000000 -45.000000
v 10.353935 0.000000 -45.000000
v -19.646065 0.000000 45.000000
v 100.353935 0.000000 45.000000
v 40.353935 0.000000 45.000000
v 70.353935 0.000000 45.000000
v 10.353935 0.000000 45.000000
v 100.353935 0.000000 15.000000
v 40.353935 0.000000 15.000000
v -19.646065 0.000000 15.000000
v 70.353935 0.000000 15.000000
v 10.353935 0.000000 15.000000
v -4.646065 0.000000 -60.000000
v -4.646065 0.000000 0.000000
v -4.646065 0.000000 -30.000000
v -4.646065 0.000000 30.000000
v -4.646065 0.000000 60.000000
v -4.646065 0.000000 -15.000000
v -4.646065 0.000000 -45.000000
v -4.646065 0.000000 45.000000
v -4.646065 0.000000 15.000000
v 25.353935 0.000000 60.000000
v 25.353935 0.000000 -60.000000
v 25.353935 0.000000 0.000000
v 25.353935 0.000000 -30.000000
v 25.353935 0.000000 30.000000
v 25.353935 0.000000 -15.000000
v 25.353935 0.000000 -45.000000
v 25.353935 0.000000 45.000000
v 25.353935 0.000000 15.000000
v 55.353935 0.000000 -60.000000
v 55.353935 0.000000 0.000000
v 55.353935 0.000000 -30.000000
v 55.353935 0.000000 30.000000
v 55.353935 0.000000 60.000000
v 55.353935 0.000000 -15.000000
v 55.353935 0.000000 -45.000000
v 55.353935 0.000000 45.000000
v 55.353935 0.000000 15.000000
v 86.717575 0.000000 60.000000
v 86.717575 0.000000 -60.000000
v 86.717575 0.000000 0.000000
v 86.717575 0.000000 -30.000000
v 86.717575 0.000000 30.000000
v 86.717575 0.000000 -15.000000
v 86.717575 0.000000 -45.000000
v 86.717575 0.000000 45.000000
v 86.717575 0.000000 15.000000
vt 0.886364 0.875000
vt 1.000000 0.875000
vt 1.000000 1.000000
vt 0.886364 1.000000
vt 0.886364 0.375000
vt 1.000000 0.375000
vt 1.000000 0.500000
vt 0.886364 0.500000
vt 0.375000 0.375000
vt 0.500000 0.375000
vt 0.500000 0.500000
vt 0.375000 0.500000
vt 0.375000 0.875000
vt 0.500000 0.875000
vt 0.500000 1.000000
vt 0.375000 1.000000
vt 0.375000 0.625000
vt 0.500000 0.625000
vt 0.500000 0.750000
vt 0.375000 0.750000
vt 0.886364 0.625000
vt 1.000000 0.625000
vt 1.000000 0.750000
vt 0.886364 0.750000
vt 0.375000 0.125000
vt 0.500000 0.125000
vt 0.500000 0.250000
vt 0.375000 0.250000
vt 0.886364 0.125000
vt 1.000000 0.125000
vt 1.000000 0.250000
vt 0.886364 0.250000
vt 0.625000 0.125000
vt 0.750000 0.125000
vt 0.750000 0.250000
vt 0.625000 0.250000
vt 0.625000 0.625000
vt 0.750000 0.625000
vt 0.750000 0.750000
vt 0.625000 0.750000
vt 0.625000 0.375000
vt 0.750000 0.375000
vt 0.750000 0.500000
vt 0.625000 0.500000
vt 0.625000 0.875000
vt 0.750000 0.875000
vt 0.750000 1.000000
vt 0.625000 1.000000
vt 0.125000 0.125000
vt 0.250000 0.125000
vt 0.250000 0.250000
vt 0.125000 0.250000
vt 0.125000 0.625000
vt 0.250000 0.625000
vt 0.250000 0.750000
vt 0.125000 0.750000
vt 0.125000 0.875000
vt 0.250000 0.875000
vt 0.250000 1.000000
vt 0.125000 1.000000
vt 0.125000 0.375000
vt 0.250000 0.375000
vt 0.250000 0.500000
vt 0.125000 0.500000
vt 0.125000 0.000000
vt 0.250000 0.000000
vt 0.625000 0.000000
vt 0.750000 0.000000
vt 0.886364 0.000000
vt 1.000000 0.000000
vt 0.375000 0.000000
vt 0.500000 0.000000
vt 0.000000 0.250000
vt 0.000000 0.375000
vt 0.000000 0.000000
vt 0.000000 0.125000
vt 0.000000 0.750000
vt 0.000000 0.875000
vt 0.000000 0.500000
vt 0.000000 0.625000
vt 0.000000 1.000000
vn 0.0000 1.0000 0.0000
usemtl None
s off
f 79/1/1 31/2/1 4/3/1 74/4/1
f 81/5/1 41/6/1 6/7/1 75/8/1
f 63/9/1 42/10/1 9/11/1 57/12/1
f 61/13/1 32/14/1 8/15/1 56/16/1
f 60/17/1 28/18/1 12/19/1 58/20/1
f 78/21/1 27/22/1 10/23/1 76/24/1
f 62/25/1 38/26/1 15/27/1 59/28/1
f 80/29/1 37/30/1 14/31/1 77/32/1
f 71/33/1 39/34/1 20/35/1 67/36/1
f 69/37/1 29/38/1 19/39/1 66/40/1
f 72/41/1 44/42/1 18/43/1 65/44/1
f 70/45/1 34/46/1 17/47/1 64/48/1
f 53/49/1 40/50/1 25/51/1 49/52/1
f 51/53/1 30/54/1 24/55/1 48/56/1
f 52/57/1 35/58/1 21/59/1 46/60/1
f 54/61/1 45/62/1 22/63/1 47/64/1
f 47/64/1 22/63/1 30/54/1 51/53/1
f 65/44/1 18/43/1 29/38/1 69/37/1
f 75/8/1 6/7/1 27/22/1 78/21/1
f 57/12/1 9/11/1 28/18/1 60/17/1
f 48/56/1 24/55/1 35/58/1 52/57/1
f 66/40/1 19/39/1 34/46/1 70/45/1
f 58/20/1 12/19/1 32/14/1 61/13/1
f 76/24/1 10/23/1 31/2/1 79/1/1
f 50/65/1 23/66/1 40/50/1 53/49/1
f 68/67/1 16/68/1 39/34/1 71/33/1
f 73/69/1 2/70/1 37/30/1 80/29/1
f 55/71/1 7/72/1 38/26/1 62/25/1
f 49/52/1 25/51/1 45/62/1 54/61/1
f 67/36/1 20/35/1 44/42/1 72/41/1
f 59/28/1 15/27/1 42/10/1 63/9/1
f 77/32/1 14/31/1 41/6/1 81/5/1
f 13/73/1 49/52/1 54/61/1 43/74/1
f 1/75/1 50/65/1 53/49/1 36/76/1
f 11/77/1 48/56/1 52/57/1 33/78/1
f 5/79/1 47/64/1 51/53/1 26/80/1
f 43/74/1 54/61/1 47/64/1 5/79/1
f 33/78/1 52/57/1 46/60/1 3/81/1
f 26/80/1 51/53/1 48/56/1 11/77/1
f 36/76/1 53/49/1 49/52/1 13/73/1
f 25/51/1 59/28/1 63/9/1 45/62/1
f 23/66/1 55/71/1 62/25/1 40/50/1
f 24/55/1 58/20/1 61/13/1 35/58/1
f 22/63/1 57/12/1 60/17/1 30/54/1
f 40/50/1 62/25/1 59/28/1 25/51/1
f 30/54/1 60/17/1 58/20/1 24/55/1
f 35/58/1 61/13/1 56/16/1 21/59/1
f 45/62/1 63/9/1 57/12/1 22/63/1
f 15/27/1 67/36/1 72/41/1 42/10/1
f 7/72/1 68/67/1 71/33/1 38/26/1
f 12/19/1 66/40/1 70/45/1 32/14/1
f 9/11/1 65/44/1 69/37/1 28/18/1
f 32/14/1 70/45/1 64/48/1 8/15/1
f 42/10/1 72/41/1 65/44/1 9/11/1
f 28/18/1 69/37/1 66/40/1 12/19/1
f 38/26/1 71/33/1 67/36/1 15/27/1
f 20/35/1 77/32/1 81/5/1 44/42/1
f 16/68/1 73/69/1 80/29/1 39/34/1
f 19/39/1 76/24/1 79/1/1 34/46/1
f 18/43/1 75/8/1 78/21/1 29/38/1
f 39/34/1 80/29/1 77/32/1 20/35/1
f 29/38/1 78/21/1 76/24/1 19/39/1
f 44/42/1 81/5/1 75/8/1 18/43/1
f 34/46/1 79/1/1 74/4/1 17/47/1
o Circle_Circle.003
v 192.170807 0.000000 -92.614296
v 186.318100 0.000000 -92.037857
v 180.690308 0.000000 -90.330681
v 175.503693 0.000000 -87.558380
v 170.957611 0.000000 -83.827499
v 167.226715 0.000000 -79.281403
v 164.454422 0.000000 -74.094803
v 162.747253 0.000000 -68.467010
v 162.170807 0.000000 -62.614300
v 162.747253 0.000000 -56.761589
v 164.454422 0.000000 -51.133797
v 167.226715 0.000000 -45.947189
v 170.957611 0.000000 -41.401093
v 175.503708 0.000000 -37.670204
v 180.690308 0.000000 -34.897907
v 186.318100 0.000000 -33.190735
v 192.170822 0.000000 -32.614296
v 198.023529 0.000000 -33.190742
v 203.651321 0.000000 -34.897919
v 208.837921 0.000000 -37.670219
v 213.384018 0.000000 -41.401108
v 217.114899 0.000000 -45.947205
v 219.887207 0.000000 -51.133816
v 221.594376 0.000000 -56.761612
v 222.170807 0.000000 -62.614326
v 221.594360 0.000000 -68.467033
v 219.887177 0.000000 -74.094833
v 217.114868 0.000000 -79.281433
v 213.383987 0.000000 -83.827530
v 208.837875 0.000000 -87.558411
v 203.651276 0.000000 -90.330704
v 198.023468 0.000000 -92.037865
l 83 82
l 84 83
l 85 84
l 86 85
l 87 86
l 88 87
l 89 88
l 90 89
l 91 90
l 92 91
l 93 92
l 94 93
l 95 94
l 96 95
l 97 96
l 98 97
l 99 98
l 100 99
l 101 100
l 102 101
l 103 102
l 104 103
l 105 104
l 106 105
l 107 106
l 108 107
l 109 108
l 110 109
l 111 110
l 112 111
l 113 112
l 82 113
o Circle.001_Circle.004
v 190.729248 0.000000 28.812057
v 184.876541 0.000000 29.388500
v 179.248749 0.000000 31.095673
v 174.062134 0.000000 33.867970
v 169.516052 0.000000 37.598854
v 165.785156 0.000000 42.144951
v 163.012863 0.000000 47.331554
v 161.305695 0.000000 52.959347
v 160.729248 0.000000 58.812054
v 161.305695 0.000000 64.664764
v 163.012863 0.000000 70.292557
v 165.785156 0.000000 75.479164
v 169.516052 0.000000 80.025261
v 174.062149 0.000000 83.756149
v 179.248749 0.000000 86.528442
v 184.876541 0.000000 88.235619
v 190.729263 0.000000 88.812057
v 196.581970 0.000000 88.235611
v 202.209763 0.000000 86.528435
v 207.396362 0.000000 83.756134
v 211.942459 0.000000 80.025246
v 215.673340 0.000000 75.479149
v 218.445648 0.000000 70.292542
v 220.152817 0.000000 64.664742
v 220.729248 0.000000 58.812027
v 220.152802 0.000000 52.959316
v 218.445618 0.000000 47.331524
v 215.673309 0.000000 42.144920
v 211.942429 0.000000 37.598827
v 207.396317 0.000000 33.867947
v 202.209717 0.000000 31.095654
v 196.581909 0.000000 29.388491
l 115 114
l 116 115
l 117 116
l 118 117
l 119 118
l 120 119
l 121 120
l 122 121
l 123 122
l 124 123
l 125 124
l 126 125
l 127 126
l 128 127
l 129 128
l 130 129
l 131 130
l 132 131
l 133 132
l 134 133
l 135 134
l 136 135
l 137 136
l 138 137
l 139 138
l 140 139
l 141 140
l 142 141
l 143 142
l 144 143
l 145 144
l 114 145
o Circle.002_Circle.005
v -111.383400 0.000000 29.917427
v -117.236107 0.000000 30.493870
v -122.863907 0.000000 32.201042
v -128.050507 0.000000 34.973339
v -132.596603 0.000000 38.704224
v -136.327484 0.000000 43.250320
v -139.099792 0.000000 48.436924
v -140.806961 0.000000 54.064716
v -141.383392 0.000000 59.917423
v -140.806961 0.000000 65.770134
v -139.099792 0.000000 71.397926
v -136.327484 0.000000 76.584534
v -132.596603 0.000000 81.130630
v -128.050507 0.000000 84.861519
v -122.863899 0.000000 87.633820
v -117.236099 0.000000 89.340988
v -111.383392 0.000000 89.917427
v -105.530678 0.000000 89.340981
v -99.902885 0.000000 87.633804
v -94.716278 0.000000 84.861504
v -90.170181 0.000000 81.130615
v -86.439301 0.000000 76.584518
v -83.667007 0.000000 71.397903
v -81.959839 0.000000 65.770111
v -81.383400 0.000000 59.917397
v -81.959846 0.000000 54.064686
v -83.667023 0.000000 48.436893
v -86.439331 0.000000 43.250290
v -90.170227 0.000000 38.704197
v -94.716324 0.000000 34.973316
v -99.902939 0.000000 32.201023
v -105.530739 0.000000 30.493860
l 147 146
l 148 147
l 149 148
l 150 149
l 151 150
l 152 151
l 153 152
l 154 153
l 155 154
l 156 155
l 157 156
l 158 157
l 159 158
l 160 159
l 161 160
l 162 161
l 163 162
l 164 163
l 165 164
l 166 165
l 167 166
l 168 167
l 169 168
l 170 169
l 171 170
l 172 171
l 173 172
l 174 173
l 175 174
l 176 175
l 177 176
l 146 177
o Circle.003_Circle.006
v -110.961700 0.000000 -89.713860
v -116.814407 0.000000 -89.137421
v -122.442207 0.000000 -87.430244
v -127.628807 0.000000 -84.657944
v -132.174896 0.000000 -80.927063
v -135.905792 0.000000 -76.380966
v -138.678085 0.000000 -71.194366
v -140.385254 0.000000 -65.566574
v -140.961700 0.000000 -59.713863
v -140.385254 0.000000 -53.861153
v -138.678085 0.000000 -48.233360
v -135.905792 0.000000 -43.046753
v -132.174896 0.000000 -38.500656
v -127.628807 0.000000 -34.769768
v -122.442200 0.000000 -31.997471
v -116.814400 0.000000 -30.290300
v -110.961693 0.000000 -29.713860
v -105.108978 0.000000 -30.290304
v -99.481186 0.000000 -31.997480
v -94.294579 0.000000 -34.769783
v -89.748482 0.000000 -38.500671
v -86.017601 0.000000 -43.046768
v -83.245300 0.000000 -48.233379
v -81.538139 0.000000 -53.861176
v -80.961700 0.000000 -59.713890
v -81.538147 0.000000 -65.566597
v -83.245331 0.000000 -71.194397
v -86.017632 0.000000 -76.380997
v -89.748520 0.000000 -80.927094
v -94.294624 0.000000 -84.657974
v -99.481239 0.000000 -87.430267
v -105.109039 0.000000 -89.137428
l 179 178
l 180 179
l 181 180
l 182 181
l 183 182
l 184 183
l 185 184
l 186 185
l 187 186
l 188 187
l 189 188
l 190 189
l 191 190
l 192 191
l 193 192
l 194 193
l 195 194
l 196 195
l 197 196
l 198 197
l 199 198
l 200 199
l 201 200
l 202 201
l 203 202
l 204 203
l 205 204
l 206 205
l 207 206
l 208 207
l 209 208
l 178 209
